<svg xmlns="http://www.w3.org/2000/svg" width="420" height="100" viewBox="0 0 420 100"><rect width="420" height="100" rx="8" fill="#101719"/><path d="M280 0V100M310 0V100M340 0V100M370 0V100M400 0V100M270 20H420M270 50H420M270 80H420" stroke="#263832" stroke-width=".7"/><g transform="translate(44 0)" fill="none" stroke="#d4c5ff" stroke-width="1.8" stroke-linecap="round" stroke-linejoin="round"><circle cx="158" cy="28" r="12"/><path d="M149 37L113 58M158 40V58M167 37L203 58"/><rect x="96" y="58" width="34" height="22" rx="4"/><rect x="141" y="58" width="34" height="22" rx="4"/><rect x="186" y="58" width="34" height="22" rx="4"/></g></svg>
